<svg width="32" height="32" viewBox="0 0 32 32" fill="none" xmlns="http://www.w3.org/2000/svg">
<rect width="32" height="32" rx="16" fill="white"/>
<path d="M23.5133 16.4421L17.768 22.1873C17.6508 22.3045 17.4918 22.3704 17.3261 22.3704C17.1603 22.3704 17.0013 22.3045 16.8841 22.1873C16.7669 22.0701 16.7011 21.9111 16.7011 21.7454C16.7011 21.5796 16.7669 21.4206 16.8841 21.3034L21.5626 16.6249L8.92918 16.6255C8.76333 16.6255 8.60427 16.5596 8.48699 16.4423C8.36971 16.325 8.30383 16.166 8.30383 16.0001C8.30383 15.8343 8.36972 15.6752 8.48699 15.5579C8.60427 15.4407 8.76333 15.3748 8.92918 15.3748L21.5626 15.3753L16.8841 10.6968C16.7669 10.5796 16.7011 10.4206 16.7011 10.2549C16.7011 10.0891 16.7669 9.93014 16.8841 9.81293C17.0013 9.69572 17.1603 9.62988 17.3261 9.62988C17.4918 9.62988 17.6508 9.69572 17.768 9.81293L23.5133 15.5582C23.6305 15.6754 23.6963 15.8344 23.6963 16.0001C23.6963 16.1659 23.6305 16.3249 23.5133 16.4421Z" fill="#86223F"/>
</svg>
